<svg xmlns="http://www.w3.org/2000/svg" xmlns:xlink="http://www.w3.org/1999/xlink" viewBox="0 0 48 48"><defs><style>.a2d81588-0e3d-4289-b508-4bc86264b348{fill:none;}.b003465f-e7ae-4817-990e-9ec2ee9ed449{fill:#b6daeb;}.e35ff360-b01d-46da-8d1b-9ad2ab8b98aa{fill:#44a6d1;}.e0901bcb-ad7e-4996-a98c-62c15dbbfcd5{fill:url(#a2954571-d80f-4b49-8ec5-069212f3c6c5);}.a3820a73-fc06-4d2c-84ff-44d581eeccbf{fill:url(#a3ef8181-3ddd-4c8d-aa76-deadf6eccd09);}.ebb35772-9828-48b1-abac-c24051598aac{fill:url(#f12de326-97ae-4753-96da-90843099a8db);}.fac1c57c-9e9b-4b80-84b1-7b398fb115b5{fill:url(#bddd5e5d-d9b7-438b-b6f1-934a7b41d432);}.f4e73f95-40cc-4aca-a84f-f40ea873dc81{fill:#b2c3f7;}.ff280d3d-e579-45e1-9e3b-2f66330121a6{fill:url(#fdf5d309-8145-4db9-ad98-f63bdf83136b);}.b90918a5-4426-4aad-b671-2bc31d4b991c{fill:url(#b0ec5584-e128-4f53-927b-c2e07ab602f5);}.bb1674e4-807d-4ee2-83d6-43374f9deb87{fill:url(#b5439933-5b28-4f94-8ac6-3f2fb9cfda11);}.fa054fa0-df4a-46c6-8f09-131e8aee3565{fill:url(#a76648f7-2a55-4102-85f5-1219a3c9da0c);}.a5fdacdb-ae01-458d-91e8-a191deefac69{fill:url(#e1ee6781-2a5c-4ccf-a585-d433ba22104e);}.b59eab72-281f-4ede-85a1-c0169bfca509{fill:url(#aa9da16c-b81f-4cdd-a794-25a367c2b3e2);}.f9b88b52-39ca-49d6-9e0b-4b4c193bee8d{fill:url(#e1cb7497-6a34-4771-91f2-6df94c20ddcc);}.eeee3c58-b91c-4955-b2aa-fc1fc590ca22{fill:url(#a677e91c-b4fc-43e7-97ec-85d2b5e98fc9);}.b0da1833-c5ae-4449-8551-700bb50a53ad{clip-path:url(#ad7c4905-ed77-4c1b-a2ab-17e8840daa54);}.bd94d813-746f-4e2b-82a8-e895ca528b55{fill:url(#af28533f-67cb-46b2-b7a9-88cec5710317);}.f83adeed-3ee6-449a-af28-68ffc674bb24{fill:url(#bdb67ffa-4d96-4e88-a5b8-57040ac28c4d);}.f1ffed29-31ee-457c-86fd-a1557324f7af{clip-path:url(#a94cff75-07b4-4b9f-a147-e5846d1fd68c);}.be6649b6-f329-469f-ac5f-c9feabef76d9{fill:url(#bf1aa215-e250-4bbd-82d3-4522e181f7a0);}.f1452e3d-3b65-4a2b-a519-a379955ee8fe{fill:url(#a62fb85b-6c39-48c5-b978-88314ffef1c7);}</style><linearGradient id="a2954571-d80f-4b49-8ec5-069212f3c6c5" x1="48.47" y1="12.99" x2="26.06" y2="25.06" gradientTransform="translate(-8.88 22.3) rotate(-38)" gradientUnits="userSpaceOnUse"><stop offset="0" stop-color="#e2f0f6"/><stop offset="1" stop-color="#7fbedb"/></linearGradient><linearGradient id="a3ef8181-3ddd-4c8d-aa76-deadf6eccd09" x1="33.82" y1="15.12" x2="38.8" y2="19.52" gradientTransform="translate(-2.35 24.55) rotate(-38)" gradientUnits="userSpaceOnUse"><stop offset="0" stop-color="#44a6d1"/><stop offset="1" stop-color="#7fbedb"/></linearGradient><linearGradient id="f12de326-97ae-4753-96da-90843099a8db" x1="26.66" y1="13.56" x2="9.42" y2="43.63" gradientTransform="translate(3.95 -3.57) rotate(9.96)" gradientUnits="userSpaceOnUse"><stop offset="0" stop-color="#e2f0f6"/><stop offset="1" stop-color="#b6daeb"/></linearGradient><linearGradient id="bddd5e5d-d9b7-438b-b6f1-934a7b41d432" x1="10.3" y1="12.6" x2="31.27" y2="8.2" gradientTransform="translate(2.12 -3.41) rotate(9.96)" xlink:href="#a3ef8181-3ddd-4c8d-aa76-deadf6eccd09"/><linearGradient id="fdf5d309-8145-4db9-ad98-f63bdf83136b" x1="23.62" y1="10.93" x2="26.4" y2="9.58" gradientTransform="translate(6.63 -8.97) rotate(24.52)" gradientUnits="userSpaceOnUse"><stop offset="0" stop-color="#005c8e"/><stop offset="1" stop-color="#007ac2"/></linearGradient><linearGradient id="b0ec5584-e128-4f53-927b-c2e07ab602f5" x1="27.84" y1="13.71" x2="25.15" y2="14.86" gradientTransform="translate(8.38 -9.35) rotate(24.52)" gradientUnits="userSpaceOnUse"><stop offset="0" stop-color="#0091cd"/><stop offset="1" stop-color="#007ac2"/></linearGradient><linearGradient id="b5439933-5b28-4f94-8ac6-3f2fb9cfda11" x1="16.43" y1="38.82" x2="20.26" y2="18.13" gradientTransform="translate(13.19 -5.16) rotate(24.52)" gradientUnits="userSpaceOnUse"><stop offset="0" stop-color="#e2f0f6"/><stop offset="1" stop-color="#f2f9fc"/></linearGradient><linearGradient id="a76648f7-2a55-4102-85f5-1219a3c9da0c" x1="8.08" y1="20.27" x2="16.25" y2="17.46" gradientTransform="translate(8.87 -3.86) rotate(24.52)" xlink:href="#a3ef8181-3ddd-4c8d-aa76-deadf6eccd09"/><linearGradient id="e1ee6781-2a5c-4ccf-a585-d433ba22104e" x1="9.16" y1="23.41" x2="17.33" y2="20.6" gradientTransform="translate(10.38 -3.02) rotate(24.52)" xlink:href="#a3ef8181-3ddd-4c8d-aa76-deadf6eccd09"/><linearGradient id="aa9da16c-b81f-4cdd-a794-25a367c2b3e2" x1="30.28" y1="31.24" x2="2.31" y2="31.8" gradientTransform="translate(30.2 63.08) rotate(180)" gradientUnits="userSpaceOnUse"><stop offset="0" stop-color="#007ac2"/><stop offset="1" stop-color="#005c8e"/></linearGradient><linearGradient id="e1cb7497-6a34-4771-91f2-6df94c20ddcc" x1="30.36" y1="35.62" x2="2.4" y2="36.17" gradientTransform="matrix(1, 0, 0, 1, 0, 0)" xlink:href="#aa9da16c-b81f-4cdd-a794-25a367c2b3e2"/><linearGradient id="a677e91c-b4fc-43e7-97ec-85d2b5e98fc9" x1="30.36" y1="35.39" x2="2.4" y2="35.95" gradientTransform="matrix(1, 0, 0, 1, 0, 0)" xlink:href="#aa9da16c-b81f-4cdd-a794-25a367c2b3e2"/><clipPath id="ad7c4905-ed77-4c1b-a2ab-17e8840daa54"><path class="a2d81588-0e3d-4289-b508-4bc86264b348" d="M7.36,38.22h4a.84.84,0,0,0,.83-.71l.78-5.2H5.75l.78,5.2A.84.84,0,0,0,7.36,38.22Z"/></clipPath><linearGradient id="af28533f-67cb-46b2-b7a9-88cec5710317" x1="4.92" y1="35.19" x2="13.1" y2="35.31" gradientUnits="userSpaceOnUse"><stop offset="0" stop-color="#0091cd"/><stop offset="1" stop-color="#44a6d1"/></linearGradient><linearGradient id="bdb67ffa-4d96-4e88-a5b8-57040ac28c4d" x1="12.6" y1="37.21" x2="6.38" y2="32.14" gradientTransform="translate(38.85 55.63) rotate(140.88)" xlink:href="#a2954571-d80f-4b49-8ec5-069212f3c6c5"/><clipPath id="a94cff75-07b4-4b9f-a147-e5846d1fd68c"><path class="b003465f-e7ae-4817-990e-9ec2ee9ed449" d="M18.72,38.22h4a.83.83,0,0,0,.82-.71l.79-5.2H17.1l.79,5.2A.83.83,0,0,0,18.72,38.22Z"/></clipPath><linearGradient id="bf1aa215-e250-4bbd-82d3-4522e181f7a0" x1="17.37" y1="38.28" x2="22.3" y2="32.86" xlink:href="#af28533f-67cb-46b2-b7a9-88cec5710317"/><linearGradient id="a62fb85b-6c39-48c5-b978-88314ffef1c7" x1="23.61" y1="36.7" x2="16.53" y2="31.81" gradientTransform="translate(58.73 48.57) rotate(140.88)" xlink:href="#a2954571-d80f-4b49-8ec5-069212f3c6c5"/></defs><title>business</title><g id="e1dc833c-4987-4159-933e-5199a139f8b1" data-name="Layer 2"><g id="e5e1034d-d5e0-4090-9745-33a3be798ec6" data-name="icons"><g id="b8bb0e49-cccf-42a9-b292-a738d1a74cba" data-name="business"><rect class="e35ff360-b01d-46da-8d1b-9ad2ab8b98aa" width="48" height="48"/><rect class="e0901bcb-ad7e-4996-a98c-62c15dbbfcd5" x="16.32" y="8.74" width="23.23" height="30.62" rx="0.91" transform="translate(20.73 -12.1) rotate(38)"/><rect class="a3820a73-fc06-4d2c-84ff-44d581eeccbf" x="25.25" y="14.83" width="18.43" height="1.73" rx="0.86" transform="translate(16.97 -17.9) rotate(38)"/><rect class="ebb35772-9828-48b1-abac-c24051598aac" x="10.85" y="5.57" width="23.23" height="30.62" rx="0.91" transform="translate(-3.27 4.2) rotate(-9.96)"/><rect class="fac1c57c-9e9b-4b80-84b1-7b398fb115b5" x="11.41" y="9.57" width="18.43" height="1.73" rx="0.86" transform="translate(-1.49 3.73) rotate(-9.96)"/><rect class="f4e73f95-40cc-4aca-a84f-f40ea873dc81" x="11.98" y="13" width="13.73" height="1.73" rx="0.86" transform="translate(-2.11 3.47) rotate(-9.96)"/><path class="ff280d3d-e579-45e1-9e3b-2f66330121a6" d="M21.23,8.66h4.7a.77.77,0,0,1,.77.77v2.69a.77.77,0,0,1-.77.77h-4.7a0,0,0,0,1,0,0V8.66a0,0,0,0,1,0,0Z" transform="translate(-2.31 10.91) rotate(-24.52)"/><path class="b90918a5-4426-4aad-b671-2bc31d4b991c" d="M23,12.5h4.7a.77.77,0,0,1,.77.77V16a.77.77,0,0,1-.77.77H23a0,0,0,0,1,0,0V12.5A0,0,0,0,1,23,12.5Z" transform="translate(-3.74 11.99) rotate(-24.52)"/><rect class="bb1674e4-807d-4ee2-83d6-43374f9deb87" x="6.86" y="12.47" width="23.23" height="30.62" rx="0.91" transform="translate(-9.86 10.17) rotate(-24.52)"/><rect class="fa054fa0-df4a-46c6-8f09-131e8aee3565" x="6.57" y="17.61" width="13.47" height="1.73" rx="0.86" transform="translate(-6.47 7.19) rotate(-24.52)"/><rect class="a5fdacdb-ae01-458d-91e8-a191deefac69" x="8.09" y="21.52" width="8.13" height="1.73" rx="0.86" transform="translate(-8.19 7.06) rotate(-24.52)"/><g id="aec905f7-3922-434b-bee5-a2caf716c79c" data-name="glasses"><rect class="b59eab72-281f-4ede-85a1-c0169bfca509" x="2.27" y="30.02" width="25.67" height="3.05" rx="1.53" transform="translate(30.2 63.08) rotate(-180)"/><path class="f9b88b52-39ca-49d6-9e0b-4b4c193bee8d" d="M18.43,39.65H23a1.79,1.79,0,0,0,1.77-1.47L25.93,32H15.53l1.13,6.16A1.8,1.8,0,0,0,18.43,39.65Z"/><path class="eeee3c58-b91c-4955-b2aa-fc1fc590ca22" d="M7.07,39.65h4.61a1.8,1.8,0,0,0,1.77-1.47L14.58,32H4.17L5.3,38.18A1.8,1.8,0,0,0,7.07,39.65Z"/><g class="b0da1833-c5ae-4449-8551-700bb50a53ad"><path class="bd94d813-746f-4e2b-82a8-e895ca528b55" d="M7.36,38.22h4a.84.84,0,0,0,.83-.71l.78-5.2H5.75l.78,5.2A.84.84,0,0,0,7.36,38.22Z"/><rect class="f83adeed-3ee6-449a-af28-68ffc674bb24" x="4.6" y="33.41" width="9.89" height="2.62" transform="translate(-4.96 67.67) rotate(-140.88)"/></g><path class="b003465f-e7ae-4817-990e-9ec2ee9ed449" d="M18.72,38.22h4a.83.83,0,0,0,.82-.71l.79-5.2H17.1l.79,5.2A.83.83,0,0,0,18.72,38.22Z"/><g class="f1ffed29-31ee-457c-86fd-a1557324f7af"><path class="be6649b6-f329-469f-ac5f-c9feabef76d9" d="M18.72,38.22h4a.83.83,0,0,0,.82-.71l.79-5.2H17.1l.79,5.2A.83.83,0,0,0,18.72,38.22Z"/><rect class="f1452e3d-3b65-4a2b-a519-a379955ee8fe" x="15.79" y="33.41" width="9.89" height="2.62" transform="translate(14.93 74.74) rotate(-140.88)"/></g></g></g></g></g></svg>