<svg xmlns="http://www.w3.org/2000/svg" xmlns:xlink="http://www.w3.org/1999/xlink" viewBox="0 0 48 48"><defs><style>.b9425b99-d8e6-4af7-a814-ce021b8fb524{fill:#f88f86;}.bb695db7-50d3-48f3-9218-91d3562761ea{fill:url(#fd9225a8-73d2-41c9-9cd6-e76048b749e8);}.fdb56570-a73d-452c-a8c9-41c70c989355{fill:url(#ed17bc8f-a3ee-4c28-848b-ab1f0cc1e711);}.e645533f-b881-4f5f-a818-34bc7a725b5f{fill:url(#a2aecfae-df6f-4463-b0eb-6994b00af51a);}.af41ae7f-112d-4f7e-a30e-966792da7f1b{fill:#f4a4c2;}.bcc6ed62-56ea-4c4a-be8c-7e2886a67457{fill:url(#e49ccb7b-3ee7-4a6a-8abe-f60d705fe00f);}.be510342-24ff-4adf-a305-114eeff835dc{fill:url(#e2fcb390-77c3-42af-ab9c-ab78c646da88);}.b1ca0005-acf7-430a-b10c-3887c67e8300{fill:url(#b223790c-0d02-4248-98e0-7e19ea22e491);}.e18659ef-d46f-4cc6-88a2-86a5bafefdd0{fill:url(#e26af938-fd09-4c21-858a-fb4471953b7c);}.acf61e00-56c8-460f-86ff-663370e265d8{fill:url(#a06430cb-ebc4-4091-aec0-b65d69fb4b01);}.ee547a4c-9719-44b0-bb95-70188858da7d{fill:url(#e7891c08-3606-4de2-96e4-ee9367177324);}.ec03615f-432c-4f2b-8c88-91661e74da14{fill:url(#a30bb51d-9404-45b2-87f5-8f5465cafdd0);}.b27bb8b7-da4c-4842-a0a4-df91b8b6dc03{fill:url(#bcefe5b1-3375-48f7-a6fc-918c2ea5bf0e);}.a4dea610-164a-4e88-ba51-5b252781b3f4{fill:url(#fbf60526-a0f4-4808-862d-4a5591175441);}.a2a7af30-cd0d-4b50-a500-3144c4574c4d{fill:url(#af62ddab-9716-43ba-9d0c-26d3fbb9b703);}.f2a0160d-5e77-4732-a8a9-df85ff88a832{fill:url(#e1117890-0eb2-41bf-8a0f-f7003f6585a6);}.e75f1bb4-3450-447a-8626-77de2df06f18{fill:none;stroke:#fdebeb;stroke-linecap:round;stroke-linejoin:round;stroke-width:1.4px;}.a1b793b2-ad38-4965-8f22-9fd4bce8f129{fill:url(#b35e1262-b780-4c90-8b88-442bc0473d0d);}.fb388f99-761e-42dc-87a9-4847654fc5d3{fill:url(#efc1dff5-6ba5-40e8-8eb1-ef6029c017bc);}</style><linearGradient id="fd9225a8-73d2-41c9-9cd6-e76048b749e8" x1="16.01" y1="36.25" x2="26.09" y2="34.46" gradientUnits="userSpaceOnUse"><stop offset="0" stop-color="#f7b0aa"/><stop offset="1" stop-color="#fad2cd"/></linearGradient><linearGradient id="ed17bc8f-a3ee-4c28-848b-ab1f0cc1e711" x1="22.41" y1="35.25" x2="31.6" y2="32.95" gradientTransform="translate(-9.84 54.27) rotate(-76.12)" gradientUnits="userSpaceOnUse"><stop offset="0" stop-color="#f88f86"/><stop offset="1" stop-color="#fe6d60"/></linearGradient><linearGradient id="a2aecfae-df6f-4463-b0eb-6994b00af51a" x1="22.4" y1="35.23" x2="31.59" y2="32.93" gradientTransform="translate(-17.67 48.14) rotate(-76.12)" xlink:href="#ed17bc8f-a3ee-4c28-848b-ab1f0cc1e711"/><linearGradient id="e49ccb7b-3ee7-4a6a-8abe-f60d705fe00f" x1="25.84" y1="19.56" x2="11.53" y2="38.46" gradientUnits="userSpaceOnUse"><stop offset="0" stop-color="#fdebeb"/><stop offset="1" stop-color="#f7b0aa"/></linearGradient><linearGradient id="e2fcb390-77c3-42af-ab9c-ab78c646da88" x1="14.38" y1="35.92" x2="23" y2="22.9" gradientTransform="translate(-9.48 17.52) rotate(-35.56)" xlink:href="#ed17bc8f-a3ee-4c28-848b-ab1f0cc1e711"/><linearGradient id="b223790c-0d02-4248-98e0-7e19ea22e491" x1="14.14" y1="35.76" x2="22.76" y2="22.74" gradientTransform="translate(-14.17 16.02) rotate(-35.56)" xlink:href="#ed17bc8f-a3ee-4c28-848b-ab1f0cc1e711"/><linearGradient id="e26af938-fd09-4c21-858a-fb4471953b7c" x1="13.9" y1="35.6" x2="22.51" y2="22.58" gradientTransform="translate(-18.86 14.51) rotate(-35.56)" xlink:href="#ed17bc8f-a3ee-4c28-848b-ab1f0cc1e711"/><linearGradient id="a06430cb-ebc4-4091-aec0-b65d69fb4b01" x1="10.64" y1="38.4" x2="10.64" y2="45.55" gradientUnits="userSpaceOnUse"><stop offset="0" stop-color="#bc3e2e"/><stop offset="1" stop-color="#de4739"/></linearGradient><linearGradient id="e7891c08-3606-4de2-96e4-ee9367177324" x1="10.91" y1="20.84" x2="10.4" y2="36.54" gradientUnits="userSpaceOnUse"><stop offset="0" stop-color="#fdebeb"/><stop offset="1" stop-color="#fad2cd"/></linearGradient><linearGradient id="a30bb51d-9404-45b2-87f5-8f5465cafdd0" x1="10.79" y1="16.5" x2="10.02" y2="39.99" gradientUnits="userSpaceOnUse"><stop offset="0" stop-color="#de4739"/><stop offset="1" stop-color="#fe6d60"/></linearGradient><linearGradient id="bcefe5b1-3375-48f7-a6fc-918c2ea5bf0e" x1="11.05" y1="16.51" x2="10.29" y2="40" xlink:href="#a30bb51d-9404-45b2-87f5-8f5465cafdd0"/><linearGradient id="fbf60526-a0f4-4808-862d-4a5591175441" x1="11.32" y1="16.51" x2="10.55" y2="40.01" xlink:href="#a30bb51d-9404-45b2-87f5-8f5465cafdd0"/><linearGradient id="af62ddab-9716-43ba-9d0c-26d3fbb9b703" x1="45.74" y1="25.12" x2="36.26" y2="15.07" gradientUnits="userSpaceOnUse"><stop offset="0" stop-color="#fad2cd"/><stop offset="1" stop-color="#fdfeff"/></linearGradient><linearGradient id="e1117890-0eb2-41bf-8a0f-f7003f6585a6" x1="45.33" y1="25.51" x2="35.85" y2="15.46" xlink:href="#af62ddab-9716-43ba-9d0c-26d3fbb9b703"/><linearGradient id="b35e1262-b780-4c90-8b88-442bc0473d0d" x1="13.01" y1="3.46" x2="13.14" y2="11.12" xlink:href="#a06430cb-ebc4-4091-aec0-b65d69fb4b01"/><linearGradient id="efc1dff5-6ba5-40e8-8eb1-ef6029c017bc" x1="32.73" y1="3.13" x2="32.86" y2="10.79" xlink:href="#a06430cb-ebc4-4091-aec0-b65d69fb4b01"/></defs><title>design</title><g id="a8fd30f2-b7b1-4d90-bb4f-a341cd944bb8" data-name="Layer 2"><g id="bb193d4d-61fc-45ef-a036-9f668626ae10" data-name="icons"><g id="bf6a887c-3ffb-47fa-85e9-4e69d9aba561" data-name="design"><rect class="b9425b99-d8e6-4af7-a814-ce021b8fb524" width="48" height="48"/><path class="bb695db7-50d3-48f3-9218-91d3562761ea" d="M36.05,36.56,33.86,27.7a.76.76,0,0,0-.92-.56l-8,2L13.14,32,8.32,33.22a.76.76,0,0,0-.55.93L9.56,41.4l.19.77.08.31h5.44L29.32,39l6.17-1.52A.77.77,0,0,0,36.05,36.56Z"/><rect class="fdb56570-a73d-452c-a8c9-41c70c989355" x="26.95" y="30.64" width="5.57" height="5.57" transform="translate(55.04 -3.47) rotate(76.12)"/><rect class="e645533f-b881-4f5f-a818-34bc7a725b5f" x="19.12" y="32.57" width="5.57" height="5.57" transform="translate(50.97 5.6) rotate(76.12)"/><rect class="af41ae7f-112d-4f7e-a30e-966792da7f1b" x="11.3" y="34.51" width="5.57" height="5.57" transform="translate(46.9 14.67) rotate(76.12)"/><path class="bcc6ed62-56ea-4c4a-be8c-7e2886a67457" d="M29.42,21.82,22,16.51a.76.76,0,0,0-1.06.18l-4.77,6.66L9.07,33.27l-2.89,4a.76.76,0,0,0,.18,1.07l5.74,4.1h3.48l.07-.09L25.89,28.06l3.7-5.18A.75.75,0,0,0,29.42,21.82Z"/><rect class="be510342-24ff-4adf-a305-114eeff835dc" x="19.79" y="20.75" width="5.57" height="5.57" transform="matrix(0.81, 0.58, -0.58, 0.81, 17.9, -8.74)"/><rect class="b1ca0005-acf7-430a-b10c-3887c67e8300" x="15.1" y="27.31" width="5.57" height="5.57" transform="translate(20.84 -4.79) rotate(35.56)"/><rect class="e18659ef-d46f-4cc6-88a2-86a5bafefdd0" x="10.41" y="33.87" width="5.57" height="5.57" transform="translate(23.78 -0.84) rotate(35.56)"/><path class="acf61e00-56c8-460f-86ff-663370e265d8" d="M10.64,45.68a3.06,3.06,0,0,1-1.56-.41,2.88,2.88,0,0,1-1.44-2.59,1,1,0,0,1,1-1h0a1,1,0,0,1,.95,1,1,1,0,0,0,.48,1,1.29,1.29,0,0,0,1.25,0,1,1,0,0,0,.48-.95,1,1,0,0,1,.95-1h0a1,1,0,0,1,1,1,2.92,2.92,0,0,1-1.43,2.6A3.24,3.24,0,0,1,10.64,45.68Z"/><path class="ee547a4c-9719-44b0-bb95-70188858da7d" d="M16,16.37V41.72a.75.75,0,0,1-.42.68.77.77,0,0,1-.34.08H6.08a.76.76,0,0,1-.76-.76V16.37a.76.76,0,0,1,.76-.77h9.13A.76.76,0,0,1,16,16.37Z"/><rect class="ec03615f-432c-4f2b-8c88-91661e74da14" x="7.86" y="18.19" width="5.57" height="5.57"/><rect class="b27bb8b7-da4c-4842-a0a4-df91b8b6dc03" x="7.86" y="26.26" width="5.57" height="5.57"/><rect class="a4dea610-164a-4e88-ba51-5b252781b3f4" x="7.86" y="34.32" width="5.57" height="5.57"/><path class="a2a7af30-cd0d-4b50-a500-3144c4574c4d" d="M40,13.48l-4.55-1.27a.44.44,0,0,0-.4.08l-.12.1a.11.11,0,0,0,0,.16l2.24,2.86a1.07,1.07,0,0,1,1.25.41,1.08,1.08,0,1,1-1.8,0L34.39,13a.11.11,0,0,0-.16,0l-.12.09a.46.46,0,0,0-.18.37l.15,4.72a1.15,1.15,0,0,0,.57,1l3.41,2a.37.37,0,0,0,.4,0l3.39-2.65a.37.37,0,0,0,.13-.39l-1.16-3.8A1.15,1.15,0,0,0,40,13.48Z"/><path class="f2a0160d-5e77-4732-a8a9-df85ff88a832" d="M43.62,20l-4.06,3.18a.31.31,0,0,1-.48-.16l-.3-1.07a.25.25,0,0,1,.09-.25L42.34,19a.23.23,0,0,1,.26,0l1,.54A.3.3,0,0,1,43.62,20Z"/><path class="e75f1bb4-3450-447a-8626-77de2df06f18" d="M5.66,11.49a9,9,0,0,1,3-3.76C11.91,5.38,16,6.3,19.33,8.05c1.32.71,2.51,1.6,3.83,2.28a12.89,12.89,0,0,0,3.22,1.2,8.13,8.13,0,0,0,5.06-.41,11.29,11.29,0,0,0,5.29-5.61A12.78,12.78,0,0,0,37.34,4"/><circle class="a1b793b2-ad38-4965-8f22-9fd4bce8f129" cx="13.06" cy="6.47" r="1.57"/><circle class="fb388f99-761e-42dc-87a9-4847654fc5d3" cx="32.85" cy="10.34" r="1.57"/></g></g></g></svg>