<svg xmlns="http://www.w3.org/2000/svg" xmlns:xlink="http://www.w3.org/1999/xlink" viewBox="0 0 48 48"><defs><style>.b61c3dc5-d31c-438c-a9a8-e09065c2cabe{fill:#ffc482;}.aa8a8aef-3044-408b-89a7-e24151c912d7{fill:#fff4e3;}.b80ddb6c-bdcb-49de-ae6a-110e33faaf4f{fill:#c37e19;}.be016691-b9bf-42cf-8dae-8b5212ed80c9{fill:url(#bcab7105-9e48-4bb9-a594-b8f078cae2e5);}.b2c2f000-db8a-4f87-8f4a-20effbd96cca{fill:url(#ea1f3654-6282-446e-a4b7-4a881f0edf30);}.a703c5be-0438-411b-b36a-b85729fdd7f5{fill:url(#a60276da-c576-4fc9-a98d-91a6de873e87);}.b7e2eb43-1ed4-443f-8795-1689c284745d{fill:url(#ad3ef4cd-1de1-40df-98a3-0d6a745c437a);}.bb1dcb08-fdf6-4e5e-868b-2ae761353c15{fill:#a66f04;}.a51b1e9f-2ea5-44db-8f33-47ffd9c78ef4{fill:url(#beac3369-94ee-4a0b-890d-9914bd38805c);}.efe10f92-ca93-4470-b5f2-01e5bb13c0fa{fill:url(#b636bdcd-171b-4add-9bff-93d40a21c707);}.b3ce308a-1d80-4eca-8e5e-abc24f5ed319{fill:url(#a1df95fd-3568-4db4-928e-7758a90441c0);}.ba9b088a-7ade-47d1-92ac-b220f90c314f{fill:url(#b2c4bee4-71eb-44bb-8e00-1455deda9830);}.f3dc5dca-3cb8-42e3-bd27-8374a29cc032{fill:url(#b11fb2fc-8bb1-4ee4-a8cf-4db6f4bd0322);}</style><linearGradient id="bcab7105-9e48-4bb9-a594-b8f078cae2e5" x1="24.7" y1="14.13" x2="24.96" y2="42.02" gradientUnits="userSpaceOnUse"><stop offset="0" stop-color="#c37e19"/><stop offset="1" stop-color="#ffa73c"/></linearGradient><linearGradient id="ea1f3654-6282-446e-a4b7-4a881f0edf30" x1="24.82" y1="36.63" x2="24.62" y2="50.25" xlink:href="#bcab7105-9e48-4bb9-a594-b8f078cae2e5"/><linearGradient id="a60276da-c576-4fc9-a98d-91a6de873e87" x1="25.12" y1="14.48" x2="24.51" y2="7.6" gradientUnits="userSpaceOnUse"><stop offset="0" stop-color="#a66f04"/><stop offset="1" stop-color="#db8d24"/></linearGradient><linearGradient id="ad3ef4cd-1de1-40df-98a3-0d6a745c437a" x1="24.82" y1="37.83" x2="24.82" y2="27.6" gradientUnits="userSpaceOnUse"><stop offset="0" stop-color="#ffc482"/><stop offset="1" stop-color="#f39b32"/></linearGradient><linearGradient id="beac3369-94ee-4a0b-890d-9914bd38805c" x1="24.51" y1="-1.34" x2="24.89" y2="23.23" gradientUnits="userSpaceOnUse"><stop offset="0" stop-color="#db8d24"/><stop offset="1" stop-color="#f39b32"/></linearGradient><linearGradient id="b636bdcd-171b-4add-9bff-93d40a21c707" x1="21.75" y1="16.82" x2="36.72" y2="16.63" xlink:href="#a60276da-c576-4fc9-a98d-91a6de873e87"/><linearGradient id="a1df95fd-3568-4db4-928e-7758a90441c0" x1="18.69" y1="29.41" x2="18.62" y2="21.41" xlink:href="#a60276da-c576-4fc9-a98d-91a6de873e87"/><linearGradient id="b2c4bee4-71eb-44bb-8e00-1455deda9830" x1="30.99" y1="29.53" x2="30.93" y2="18.53" gradientUnits="userSpaceOnUse"><stop offset="0" stop-color="#a66f04"/><stop offset="0.63" stop-color="#db8d24"/></linearGradient><linearGradient id="b11fb2fc-8bb1-4ee4-a8cf-4db6f4bd0322" x1="48.23" y1="38.46" x2="37.48" y2="38.72" gradientUnits="userSpaceOnUse"><stop offset="0" stop-color="#ffb65f"/><stop offset="0.26" stop-color="#efa84d"/><stop offset="1" stop-color="#c37e19"/></linearGradient></defs><title>education</title><g id="ebc1fff8-9aea-44da-bdc6-404b329c64d0" data-name="Layer 2"><g id="a002e9ba-25e8-4ec8-8674-e5ca135fb1b8" data-name="icons"><g id="f9fbf6ff-e6a1-4903-b249-dc29d9d6a776" data-name="education"><rect class="b61c3dc5-d31c-438c-a9a8-e09065c2cabe" width="48" height="48"/><rect class="aa8a8aef-3044-408b-89a7-e24151c912d7" x="6.55" y="19.71" width="15.02" height="19.74" rx="0.69" transform="translate(-10.97 8.46) rotate(-24.42)"/><rect class="b61c3dc5-d31c-438c-a9a8-e09065c2cabe" x="3.49" y="22.68" width="15.02" height="0.32" transform="translate(-8.46 6.59) rotate(-24.42)"/><rect class="b61c3dc5-d31c-438c-a9a8-e09065c2cabe" x="4.4" y="24.68" width="15.02" height="0.32" transform="translate(-9.2 7.15) rotate(-24.42)"/><rect class="b61c3dc5-d31c-438c-a9a8-e09065c2cabe" x="5.31" y="26.68" width="15.02" height="0.32" transform="translate(-9.95 7.7) rotate(-24.42)"/><rect class="b61c3dc5-d31c-438c-a9a8-e09065c2cabe" x="6.22" y="28.68" width="15.02" height="0.32" transform="translate(-10.7 8.26) rotate(-24.42)"/><rect class="b61c3dc5-d31c-438c-a9a8-e09065c2cabe" x="7.13" y="30.69" width="15.02" height="0.32" transform="translate(-11.44 8.81) rotate(-24.42)"/><rect class="b61c3dc5-d31c-438c-a9a8-e09065c2cabe" x="8.04" y="32.69" width="15.02" height="0.32" transform="translate(-12.19 9.37) rotate(-24.42)"/><rect class="b61c3dc5-d31c-438c-a9a8-e09065c2cabe" x="8.95" y="34.69" width="15.02" height="0.32" transform="translate(-12.94 9.92) rotate(-24.42)"/><rect class="b61c3dc5-d31c-438c-a9a8-e09065c2cabe" x="9.86" y="36.69" width="15.02" height="0.32" transform="matrix(0.91, -0.41, 0.41, 0.91, -13.68, 10.48)"/><rect class="b80ddb6c-bdcb-49de-ae6a-110e33faaf4f" x="2.7" y="24.36" width="2.04" height="1.29" rx="0.64" transform="translate(-10 3.77) rotate(-24.42)"/><rect class="b80ddb6c-bdcb-49de-ae6a-110e33faaf4f" x="3.88" y="26.96" width="2.04" height="1.29" rx="0.64" transform="translate(-10.97 4.5) rotate(-24.42)"/><rect class="b80ddb6c-bdcb-49de-ae6a-110e33faaf4f" x="5.06" y="29.57" width="2.04" height="1.29" rx="0.64" transform="translate(-11.95 5.22) rotate(-24.42)"/><rect class="b80ddb6c-bdcb-49de-ae6a-110e33faaf4f" x="6.22" y="32.11" width="2.04" height="1.29" rx="0.64" transform="translate(-12.89 5.92) rotate(-24.42)"/><rect class="b80ddb6c-bdcb-49de-ae6a-110e33faaf4f" x="7.37" y="34.65" width="2.04" height="1.29" rx="0.64" transform="translate(-13.84 6.62) rotate(-24.42)"/><rect class="b80ddb6c-bdcb-49de-ae6a-110e33faaf4f" x="8.52" y="37.19" width="2.04" height="1.29" rx="0.64" transform="translate(-14.79 7.33) rotate(-24.42)"/><rect class="b80ddb6c-bdcb-49de-ae6a-110e33faaf4f" x="9.67" y="39.73" width="2.04" height="1.29" rx="0.64" transform="translate(-15.73 8.03) rotate(-24.42)"/><path class="be016691-b9bf-42cf-8dae-8b5212ed80c9" d="M13.13,11.74H36.51a0,0,0,0,1,0,0v30A1.23,1.23,0,0,1,35.28,43H14.36a1.23,1.23,0,0,1-1.23-1.23v-30A0,0,0,0,1,13.13,11.74Z"/><path class="b2c2f000-db8a-4f87-8f4a-20effbd96cca" d="M15.58,32.9H34.05a0,0,0,0,1,0,0V40a1.13,1.13,0,0,1-1.13,1.13H16.72A1.13,1.13,0,0,1,15.58,40V32.9A0,0,0,0,1,15.58,32.9Z"/><path class="a703c5be-0438-411b-b36a-b85729fdd7f5" d="M27.89,12a.86.86,0,0,1-.86-.86,2.12,2.12,0,0,0-.67-1.66A2.36,2.36,0,0,0,24.82,9a2.09,2.09,0,0,0-2.21,2.21.87.87,0,0,1-1.73,0,3.94,3.94,0,1,1,7.88,0A.86.86,0,0,1,27.89,12Z"/><path class="b7e2eb43-1ed4-443f-8795-1689c284745d" d="M15.79,33.12l8.49,4a1.25,1.25,0,0,0,1.07,0l8.5-4A.58.58,0,0,0,33.6,32H16A.58.58,0,0,0,15.79,33.12Z"/><circle class="bb1dcb08-fdf6-4e5e-868b-2ae761353c15" cx="24.77" cy="35.21" r="0.77"/><rect class="a51b1e9f-2ea5-44db-8f33-47ffd9c78ef4" x="12.07" y="11.16" width="25.49" height="14.91" rx="1"/><rect class="efe10f92-ca93-4470-b5f2-01e5bb13c0fa" x="20.44" y="15.87" width="8.75" height="1.83" rx="0.91"/><path class="bb1dcb08-fdf6-4e5e-868b-2ae761353c15" d="M21.74,19.82h0a.94.94,0,0,1-.93-1.09L21,17.36a.72.72,0,0,1,.72-.62h0a.72.72,0,0,1,.72.62l.21,1.37A.94.94,0,0,1,21.74,19.82Z"/><path class="b3ce308a-1d80-4eca-8e5e-abc24f5ed319" d="M17.68,23.66h2A.32.32,0,0,1,20,24v4.54a1.3,1.3,0,0,1-1.3,1.3h0a1.3,1.3,0,0,1-1.3-1.3V24a.32.32,0,0,1,.32-.32Z"/><path class="ba9b088a-7ade-47d1-92ac-b220f90c314f" d="M30,23.66h2a.32.32,0,0,1,.32.32v4.54a1.3,1.3,0,0,1-1.3,1.3h0a1.3,1.3,0,0,1-1.3-1.3V24A.32.32,0,0,1,30,23.66Z"/><path class="bb1dcb08-fdf6-4e5e-868b-2ae761353c15" d="M39.29,35.3A.33.33,0,0,1,39,35h0a1.49,1.49,0,0,1,.74-1.45.32.32,0,0,1,.45.1.33.33,0,0,1-.1.45.83.83,0,0,0-.44.84.35.35,0,0,0,0,.06A.32.32,0,0,1,39.29,35.3ZM39,35h0Z"/><path class="f3dc5dca-3cb8-42e3-bd27-8374a29cc032" d="M40.28,43H38.86a3.34,3.34,0,0,1-3.11-2.12l-1-2.45a3,3,0,0,1,2.79-4.06h4a3,3,0,0,1,2.78,4.06l-.94,2.43A3.33,3.33,0,0,1,40.28,43Z"/></g></g></g></svg>